<mxfile host="Electron" modified="2024-01-10T11:14:35.586Z" agent="Mozilla/5.0 (X11; Linux x86_64) AppleWebKit/537.36 (KHTML, like Gecko) draw.io/22.1.16 Chrome/120.0.6099.109 Electron/28.1.0 Safari/537.36" etag="qaGxOwQ77WRdbmPBq66k" version="22.1.16" type="device">
  <diagram id="C5RBs43oDa-KdzZeNtuy" name="Page-1">
    <mxGraphModel dx="1372" dy="838" grid="1" gridSize="10" guides="1" tooltips="1" connect="1" arrows="1" fold="1" page="1" pageScale="1" pageWidth="827" pageHeight="1169" math="0" shadow="0">
      <root>
        <mxCell id="WIyWlLk6GJQsqaUBKTNV-0" />
        <mxCell id="WIyWlLk6GJQsqaUBKTNV-1" parent="WIyWlLk6GJQsqaUBKTNV-0" />
        <mxCell id="WXDrTUnuM0jgBfLStoZc-5" value="" style="edgeStyle=orthogonalEdgeStyle;rounded=0;orthogonalLoop=1;jettySize=auto;html=1;" parent="WIyWlLk6GJQsqaUBKTNV-1" source="WXDrTUnuM0jgBfLStoZc-1" target="WXDrTUnuM0jgBfLStoZc-4" edge="1">
          <mxGeometry relative="1" as="geometry" />
        </mxCell>
        <mxCell id="WXDrTUnuM0jgBfLStoZc-55" value="" style="edgeStyle=orthogonalEdgeStyle;rounded=0;orthogonalLoop=1;jettySize=auto;html=1;shape=link;" parent="WIyWlLk6GJQsqaUBKTNV-1" source="WXDrTUnuM0jgBfLStoZc-1" target="WXDrTUnuM0jgBfLStoZc-54" edge="1">
          <mxGeometry relative="1" as="geometry" />
        </mxCell>
        <mxCell id="WXDrTUnuM0jgBfLStoZc-1" value="/auth/login/" style="strokeWidth=2;html=1;shape=mxgraph.flowchart.start_1;whiteSpace=wrap;" parent="WIyWlLk6GJQsqaUBKTNV-1" vertex="1">
          <mxGeometry x="120" y="42" width="80" height="50" as="geometry" />
        </mxCell>
        <mxCell id="WXDrTUnuM0jgBfLStoZc-8" value="" style="edgeStyle=orthogonalEdgeStyle;rounded=0;orthogonalLoop=1;jettySize=auto;html=1;" parent="WIyWlLk6GJQsqaUBKTNV-1" source="WXDrTUnuM0jgBfLStoZc-4" target="WXDrTUnuM0jgBfLStoZc-6" edge="1">
          <mxGeometry relative="1" as="geometry">
            <Array as="points">
              <mxPoint x="80" y="172" />
            </Array>
          </mxGeometry>
        </mxCell>
        <mxCell id="WXDrTUnuM0jgBfLStoZc-14" value="" style="edgeStyle=orthogonalEdgeStyle;rounded=0;orthogonalLoop=1;jettySize=auto;html=1;" parent="WIyWlLk6GJQsqaUBKTNV-1" source="WXDrTUnuM0jgBfLStoZc-4" target="WXDrTUnuM0jgBfLStoZc-10" edge="1">
          <mxGeometry relative="1" as="geometry" />
        </mxCell>
        <mxCell id="WXDrTUnuM0jgBfLStoZc-4" value="are credentials valid?" style="rhombus;whiteSpace=wrap;html=1;" parent="WIyWlLk6GJQsqaUBKTNV-1" vertex="1">
          <mxGeometry x="120" y="132" width="80" height="80" as="geometry" />
        </mxCell>
        <mxCell id="WXDrTUnuM0jgBfLStoZc-6" value="return 400" style="strokeWidth=2;html=1;shape=mxgraph.flowchart.terminator;whiteSpace=wrap;" parent="WIyWlLk6GJQsqaUBKTNV-1" vertex="1">
          <mxGeometry x="50" y="222" width="70" height="40" as="geometry" />
        </mxCell>
        <mxCell id="WXDrTUnuM0jgBfLStoZc-9" value="no" style="text;html=1;align=center;verticalAlign=middle;resizable=0;points=[];autosize=1;strokeColor=none;fillColor=none;" parent="WIyWlLk6GJQsqaUBKTNV-1" vertex="1">
          <mxGeometry x="80" y="142" width="40" height="30" as="geometry" />
        </mxCell>
        <mxCell id="WXDrTUnuM0jgBfLStoZc-12" value="" style="edgeStyle=orthogonalEdgeStyle;rounded=0;orthogonalLoop=1;jettySize=auto;html=1;" parent="WIyWlLk6GJQsqaUBKTNV-1" source="WXDrTUnuM0jgBfLStoZc-10" target="WXDrTUnuM0jgBfLStoZc-11" edge="1">
          <mxGeometry relative="1" as="geometry">
            <Array as="points">
              <mxPoint x="80" y="312" />
            </Array>
          </mxGeometry>
        </mxCell>
        <mxCell id="WXDrTUnuM0jgBfLStoZc-17" value="" style="edgeStyle=orthogonalEdgeStyle;rounded=0;orthogonalLoop=1;jettySize=auto;html=1;" parent="WIyWlLk6GJQsqaUBKTNV-1" source="WXDrTUnuM0jgBfLStoZc-10" target="WXDrTUnuM0jgBfLStoZc-16" edge="1">
          <mxGeometry relative="1" as="geometry" />
        </mxCell>
        <mxCell id="WXDrTUnuM0jgBfLStoZc-10" value="is 2FA&lt;br&gt;active?" style="rhombus;whiteSpace=wrap;html=1;" parent="WIyWlLk6GJQsqaUBKTNV-1" vertex="1">
          <mxGeometry x="120" y="272" width="80" height="80" as="geometry" />
        </mxCell>
        <mxCell id="WXDrTUnuM0jgBfLStoZc-11" value="return {tokens}" style="strokeWidth=2;html=1;shape=mxgraph.flowchart.terminator;whiteSpace=wrap;" parent="WIyWlLk6GJQsqaUBKTNV-1" vertex="1">
          <mxGeometry x="50" y="362" width="70" height="40" as="geometry" />
        </mxCell>
        <mxCell id="WXDrTUnuM0jgBfLStoZc-13" value="no" style="text;html=1;align=center;verticalAlign=middle;resizable=0;points=[];autosize=1;strokeColor=none;fillColor=none;" parent="WIyWlLk6GJQsqaUBKTNV-1" vertex="1">
          <mxGeometry x="80" y="282" width="40" height="30" as="geometry" />
        </mxCell>
        <mxCell id="WXDrTUnuM0jgBfLStoZc-15" value="yes" style="text;html=1;align=center;verticalAlign=middle;resizable=0;points=[];autosize=1;strokeColor=none;fillColor=none;" parent="WIyWlLk6GJQsqaUBKTNV-1" vertex="1">
          <mxGeometry x="159" y="222" width="40" height="30" as="geometry" />
        </mxCell>
        <mxCell id="WXDrTUnuM0jgBfLStoZc-22" style="edgeStyle=orthogonalEdgeStyle;rounded=0;orthogonalLoop=1;jettySize=auto;html=1;entryX=0.5;entryY=1;entryDx=0;entryDy=0;dashed=1;" parent="WIyWlLk6GJQsqaUBKTNV-1" source="WXDrTUnuM0jgBfLStoZc-16" target="WXDrTUnuM0jgBfLStoZc-21" edge="1">
          <mxGeometry relative="1" as="geometry" />
        </mxCell>
        <mxCell id="WXDrTUnuM0jgBfLStoZc-16" value="return&lt;br&gt;{url_token,&lt;br&gt;tfa_type}" style="strokeWidth=2;html=1;shape=mxgraph.flowchart.terminator;whiteSpace=wrap;" parent="WIyWlLk6GJQsqaUBKTNV-1" vertex="1">
          <mxGeometry x="122.5" y="422" width="75" height="50" as="geometry" />
        </mxCell>
        <mxCell id="WXDrTUnuM0jgBfLStoZc-18" value="yes" style="text;html=1;align=center;verticalAlign=middle;resizable=0;points=[];autosize=1;strokeColor=none;fillColor=none;" parent="WIyWlLk6GJQsqaUBKTNV-1" vertex="1">
          <mxGeometry x="160" y="367" width="40" height="30" as="geometry" />
        </mxCell>
        <mxCell id="WXDrTUnuM0jgBfLStoZc-32" value="" style="edgeStyle=orthogonalEdgeStyle;rounded=0;orthogonalLoop=1;jettySize=auto;html=1;" parent="WIyWlLk6GJQsqaUBKTNV-1" source="WXDrTUnuM0jgBfLStoZc-19" target="WXDrTUnuM0jgBfLStoZc-31" edge="1">
          <mxGeometry relative="1" as="geometry" />
        </mxCell>
        <mxCell id="WXDrTUnuM0jgBfLStoZc-87" style="edgeStyle=orthogonalEdgeStyle;rounded=0;orthogonalLoop=1;jettySize=auto;html=1;entryX=0;entryY=0.5;entryDx=0;entryDy=0;shape=link;" parent="WIyWlLk6GJQsqaUBKTNV-1" source="WXDrTUnuM0jgBfLStoZc-19" target="WXDrTUnuM0jgBfLStoZc-86" edge="1">
          <mxGeometry relative="1" as="geometry">
            <Array as="points">
              <mxPoint x="568" y="120" />
            </Array>
          </mxGeometry>
        </mxCell>
        <mxCell id="WXDrTUnuM0jgBfLStoZc-19" value="/2fa/validate/login/" style="strokeWidth=2;html=1;shape=mxgraph.flowchart.start_1;whiteSpace=wrap;" parent="WIyWlLk6GJQsqaUBKTNV-1" vertex="1">
          <mxGeometry x="441" y="92" width="110" height="50" as="geometry" />
        </mxCell>
        <mxCell id="WXDrTUnuM0jgBfLStoZc-110" value="" style="edgeStyle=orthogonalEdgeStyle;rounded=0;orthogonalLoop=1;jettySize=auto;html=1;" parent="WIyWlLk6GJQsqaUBKTNV-1" source="WXDrTUnuM0jgBfLStoZc-20" target="WXDrTUnuM0jgBfLStoZc-108" edge="1">
          <mxGeometry relative="1" as="geometry" />
        </mxCell>
        <mxCell id="WXDrTUnuM0jgBfLStoZc-20" value="send email" style="strokeWidth=2;html=1;shape=mxgraph.flowchart.start_1;whiteSpace=wrap;" parent="WIyWlLk6GJQsqaUBKTNV-1" vertex="1">
          <mxGeometry x="640" y="42" width="80" height="50" as="geometry" />
        </mxCell>
        <mxCell id="WXDrTUnuM0jgBfLStoZc-26" value="" style="edgeStyle=orthogonalEdgeStyle;rounded=0;orthogonalLoop=1;jettySize=auto;html=1;dashed=1;entryX=0;entryY=0.5;entryDx=0;entryDy=0;entryPerimeter=0;" parent="WIyWlLk6GJQsqaUBKTNV-1" source="WXDrTUnuM0jgBfLStoZc-21" target="WXDrTUnuM0jgBfLStoZc-20" edge="1">
          <mxGeometry relative="1" as="geometry">
            <Array as="points">
              <mxPoint x="466" y="67" />
              <mxPoint x="466" y="67" />
            </Array>
          </mxGeometry>
        </mxCell>
        <mxCell id="WXDrTUnuM0jgBfLStoZc-21" value="2fa&lt;br&gt;type?" style="rhombus;whiteSpace=wrap;html=1;dashed=1;" parent="WIyWlLk6GJQsqaUBKTNV-1" vertex="1">
          <mxGeometry x="235" y="77" width="80" height="80" as="geometry" />
        </mxCell>
        <mxCell id="WXDrTUnuM0jgBfLStoZc-27" value="EM" style="text;html=1;align=center;verticalAlign=middle;resizable=0;points=[];autosize=1;strokeColor=none;fillColor=none;" parent="WIyWlLk6GJQsqaUBKTNV-1" vertex="1">
          <mxGeometry x="354" y="42" width="40" height="30" as="geometry" />
        </mxCell>
        <mxCell id="WXDrTUnuM0jgBfLStoZc-29" style="edgeStyle=orthogonalEdgeStyle;rounded=0;orthogonalLoop=1;jettySize=auto;html=1;entryX=0;entryY=0.5;entryDx=0;entryDy=0;entryPerimeter=0;dashed=1;" parent="WIyWlLk6GJQsqaUBKTNV-1" source="WXDrTUnuM0jgBfLStoZc-21" target="WXDrTUnuM0jgBfLStoZc-19" edge="1">
          <mxGeometry relative="1" as="geometry" />
        </mxCell>
        <mxCell id="WXDrTUnuM0jgBfLStoZc-30" value="SW" style="text;html=1;align=center;verticalAlign=middle;resizable=0;points=[];autosize=1;strokeColor=none;fillColor=none;" parent="WIyWlLk6GJQsqaUBKTNV-1" vertex="1">
          <mxGeometry x="354" y="92" width="40" height="30" as="geometry" />
        </mxCell>
        <mxCell id="WXDrTUnuM0jgBfLStoZc-37" value="" style="edgeStyle=orthogonalEdgeStyle;rounded=0;orthogonalLoop=1;jettySize=auto;html=1;" parent="WIyWlLk6GJQsqaUBKTNV-1" source="WXDrTUnuM0jgBfLStoZc-31" target="WXDrTUnuM0jgBfLStoZc-36" edge="1">
          <mxGeometry relative="1" as="geometry" />
        </mxCell>
        <mxCell id="WXDrTUnuM0jgBfLStoZc-45" value="" style="edgeStyle=orthogonalEdgeStyle;rounded=0;orthogonalLoop=1;jettySize=auto;html=1;" parent="WIyWlLk6GJQsqaUBKTNV-1" source="WXDrTUnuM0jgBfLStoZc-31" target="WXDrTUnuM0jgBfLStoZc-33" edge="1">
          <mxGeometry relative="1" as="geometry" />
        </mxCell>
        <mxCell id="WXDrTUnuM0jgBfLStoZc-31" value="is&lt;br&gt;url_token&lt;br&gt;valid?" style="rhombus;whiteSpace=wrap;html=1;" parent="WIyWlLk6GJQsqaUBKTNV-1" vertex="1">
          <mxGeometry x="456" y="182" width="80" height="80" as="geometry" />
        </mxCell>
        <mxCell id="WXDrTUnuM0jgBfLStoZc-33" value="return 400" style="strokeWidth=2;html=1;shape=mxgraph.flowchart.terminator;whiteSpace=wrap;" parent="WIyWlLk6GJQsqaUBKTNV-1" vertex="1">
          <mxGeometry x="339" y="202" width="70" height="40" as="geometry" />
        </mxCell>
        <mxCell id="WXDrTUnuM0jgBfLStoZc-35" value="no" style="text;html=1;align=center;verticalAlign=middle;resizable=0;points=[];autosize=1;strokeColor=none;fillColor=none;" parent="WIyWlLk6GJQsqaUBKTNV-1" vertex="1">
          <mxGeometry x="416" y="192" width="40" height="30" as="geometry" />
        </mxCell>
        <mxCell id="WXDrTUnuM0jgBfLStoZc-42" value="" style="edgeStyle=orthogonalEdgeStyle;rounded=0;orthogonalLoop=1;jettySize=auto;html=1;" parent="WIyWlLk6GJQsqaUBKTNV-1" source="WXDrTUnuM0jgBfLStoZc-36" target="WXDrTUnuM0jgBfLStoZc-41" edge="1">
          <mxGeometry relative="1" as="geometry" />
        </mxCell>
        <mxCell id="WXDrTUnuM0jgBfLStoZc-46" value="" style="edgeStyle=orthogonalEdgeStyle;rounded=0;orthogonalLoop=1;jettySize=auto;html=1;" parent="WIyWlLk6GJQsqaUBKTNV-1" source="WXDrTUnuM0jgBfLStoZc-36" target="WXDrTUnuM0jgBfLStoZc-38" edge="1">
          <mxGeometry relative="1" as="geometry" />
        </mxCell>
        <mxCell id="WXDrTUnuM0jgBfLStoZc-36" value="is code&lt;br&gt;valid?" style="rhombus;whiteSpace=wrap;html=1;" parent="WIyWlLk6GJQsqaUBKTNV-1" vertex="1">
          <mxGeometry x="455" y="302" width="80" height="80" as="geometry" />
        </mxCell>
        <mxCell id="WXDrTUnuM0jgBfLStoZc-38" value="return 400&lt;br&gt;{url_token}" style="strokeWidth=2;html=1;shape=mxgraph.flowchart.terminator;whiteSpace=wrap;" parent="WIyWlLk6GJQsqaUBKTNV-1" vertex="1">
          <mxGeometry x="340" y="322" width="70" height="40" as="geometry" />
        </mxCell>
        <mxCell id="WXDrTUnuM0jgBfLStoZc-41" value="return {tokens}" style="strokeWidth=2;html=1;shape=mxgraph.flowchart.terminator;whiteSpace=wrap;" parent="WIyWlLk6GJQsqaUBKTNV-1" vertex="1">
          <mxGeometry x="461" y="422" width="70" height="40" as="geometry" />
        </mxCell>
        <mxCell id="WXDrTUnuM0jgBfLStoZc-43" value="yes" style="text;html=1;align=center;verticalAlign=middle;resizable=0;points=[];autosize=1;strokeColor=none;fillColor=none;" parent="WIyWlLk6GJQsqaUBKTNV-1" vertex="1">
          <mxGeometry x="496" y="262" width="40" height="30" as="geometry" />
        </mxCell>
        <mxCell id="WXDrTUnuM0jgBfLStoZc-47" value="no" style="text;html=1;align=center;verticalAlign=middle;resizable=0;points=[];autosize=1;strokeColor=none;fillColor=none;" parent="WIyWlLk6GJQsqaUBKTNV-1" vertex="1">
          <mxGeometry x="416" y="312" width="40" height="30" as="geometry" />
        </mxCell>
        <mxCell id="WXDrTUnuM0jgBfLStoZc-48" value="yes" style="text;html=1;align=center;verticalAlign=middle;resizable=0;points=[];autosize=1;strokeColor=none;fillColor=none;" parent="WIyWlLk6GJQsqaUBKTNV-1" vertex="1">
          <mxGeometry x="496" y="382" width="40" height="30" as="geometry" />
        </mxCell>
        <mxCell id="WXDrTUnuM0jgBfLStoZc-49" value="" style="endArrow=none;html=1;rounded=0;" parent="WIyWlLk6GJQsqaUBKTNV-1" edge="1">
          <mxGeometry width="50" height="50" relative="1" as="geometry">
            <mxPoint x="4" y="520" as="sourcePoint" />
            <mxPoint x="824" y="520" as="targetPoint" />
          </mxGeometry>
        </mxCell>
        <mxCell id="WXDrTUnuM0jgBfLStoZc-50" value="&lt;b&gt;&lt;font style=&quot;font-size: 14px;&quot;&gt;LOGIN FLOW&lt;/font&gt;&lt;/b&gt;" style="text;html=1;align=center;verticalAlign=middle;resizable=0;points=[];autosize=1;strokeColor=none;fillColor=none;" parent="WIyWlLk6GJQsqaUBKTNV-1" vertex="1">
          <mxGeometry width="110" height="30" as="geometry" />
        </mxCell>
        <mxCell id="WXDrTUnuM0jgBfLStoZc-51" value="&lt;b&gt;&lt;font style=&quot;font-size: 14px;&quot;&gt;ACTIVATION FLOW&lt;/font&gt;&lt;/b&gt;" style="text;html=1;align=center;verticalAlign=middle;resizable=0;points=[];autosize=1;strokeColor=none;fillColor=none;" parent="WIyWlLk6GJQsqaUBKTNV-1" vertex="1">
          <mxGeometry y="520" width="150" height="30" as="geometry" />
        </mxCell>
        <mxCell id="WXDrTUnuM0jgBfLStoZc-59" value="" style="edgeStyle=orthogonalEdgeStyle;rounded=0;orthogonalLoop=1;jettySize=auto;html=1;shape=link;" parent="WIyWlLk6GJQsqaUBKTNV-1" source="WXDrTUnuM0jgBfLStoZc-53" target="WXDrTUnuM0jgBfLStoZc-58" edge="1">
          <mxGeometry relative="1" as="geometry" />
        </mxCell>
        <mxCell id="WXDrTUnuM0jgBfLStoZc-61" value="" style="edgeStyle=orthogonalEdgeStyle;rounded=0;orthogonalLoop=1;jettySize=auto;html=1;" parent="WIyWlLk6GJQsqaUBKTNV-1" source="WXDrTUnuM0jgBfLStoZc-53" target="WXDrTUnuM0jgBfLStoZc-60" edge="1">
          <mxGeometry relative="1" as="geometry" />
        </mxCell>
        <mxCell id="WXDrTUnuM0jgBfLStoZc-53" value="/2fa/manage/" style="strokeWidth=2;html=1;shape=mxgraph.flowchart.start_1;whiteSpace=wrap;" parent="WIyWlLk6GJQsqaUBKTNV-1" vertex="1">
          <mxGeometry x="144.5" y="619" width="110" height="50" as="geometry" />
        </mxCell>
        <mxCell id="WXDrTUnuM0jgBfLStoZc-54" value="POST" style="shape=partialRectangle;whiteSpace=wrap;html=1;top=0;bottom=0;fillColor=none;" parent="WIyWlLk6GJQsqaUBKTNV-1" vertex="1">
          <mxGeometry x="57.5" y="53" width="47.5" height="28" as="geometry" />
        </mxCell>
        <mxCell id="WXDrTUnuM0jgBfLStoZc-58" value="POST" style="shape=partialRectangle;whiteSpace=wrap;html=1;top=0;bottom=0;fillColor=none;" parent="WIyWlLk6GJQsqaUBKTNV-1" vertex="1">
          <mxGeometry x="68.75" y="630" width="47.5" height="28" as="geometry" />
        </mxCell>
        <mxCell id="WXDrTUnuM0jgBfLStoZc-63" value="" style="edgeStyle=orthogonalEdgeStyle;rounded=0;orthogonalLoop=1;jettySize=auto;html=1;" parent="WIyWlLk6GJQsqaUBKTNV-1" source="WXDrTUnuM0jgBfLStoZc-60" target="WXDrTUnuM0jgBfLStoZc-62" edge="1">
          <mxGeometry relative="1" as="geometry" />
        </mxCell>
        <mxCell id="WXDrTUnuM0jgBfLStoZc-66" value="" style="edgeStyle=orthogonalEdgeStyle;rounded=0;orthogonalLoop=1;jettySize=auto;html=1;" parent="WIyWlLk6GJQsqaUBKTNV-1" source="WXDrTUnuM0jgBfLStoZc-60" target="WXDrTUnuM0jgBfLStoZc-65" edge="1">
          <mxGeometry relative="1" as="geometry" />
        </mxCell>
        <mxCell id="WXDrTUnuM0jgBfLStoZc-70" value="" style="edgeStyle=orthogonalEdgeStyle;rounded=0;orthogonalLoop=1;jettySize=auto;html=1;" parent="WIyWlLk6GJQsqaUBKTNV-1" source="WXDrTUnuM0jgBfLStoZc-60" target="WXDrTUnuM0jgBfLStoZc-69" edge="1">
          <mxGeometry relative="1" as="geometry" />
        </mxCell>
        <mxCell id="WXDrTUnuM0jgBfLStoZc-60" value="what&lt;br&gt;tfa_type&lt;br&gt;is?" style="rhombus;whiteSpace=wrap;html=1;" parent="WIyWlLk6GJQsqaUBKTNV-1" vertex="1">
          <mxGeometry x="159.5" y="724" width="80" height="80" as="geometry" />
        </mxCell>
        <mxCell id="WXDrTUnuM0jgBfLStoZc-62" value="return 400" style="strokeWidth=2;html=1;shape=mxgraph.flowchart.terminator;whiteSpace=wrap;" parent="WIyWlLk6GJQsqaUBKTNV-1" vertex="1">
          <mxGeometry x="30" y="744" width="70" height="40" as="geometry" />
        </mxCell>
        <mxCell id="WXDrTUnuM0jgBfLStoZc-64" value="&lt;font style=&quot;font-size: 21px;&quot;&gt;*&lt;/font&gt;" style="text;html=1;align=center;verticalAlign=middle;resizable=0;points=[];autosize=1;strokeColor=none;fillColor=none;" parent="WIyWlLk6GJQsqaUBKTNV-1" vertex="1">
          <mxGeometry x="118.25" y="734" width="30" height="40" as="geometry" />
        </mxCell>
        <mxCell id="WXDrTUnuM0jgBfLStoZc-65" value="return&lt;br&gt;{url_token,&lt;br&gt;tfa_type}" style="strokeWidth=2;html=1;shape=mxgraph.flowchart.terminator;whiteSpace=wrap;" parent="WIyWlLk6GJQsqaUBKTNV-1" vertex="1">
          <mxGeometry x="162" y="864" width="75" height="50" as="geometry" />
        </mxCell>
        <mxCell id="WXDrTUnuM0jgBfLStoZc-67" value="SW" style="text;html=1;align=center;verticalAlign=middle;resizable=0;points=[];autosize=1;strokeColor=none;fillColor=none;" parent="WIyWlLk6GJQsqaUBKTNV-1" vertex="1">
          <mxGeometry x="200" y="814" width="40" height="30" as="geometry" />
        </mxCell>
        <mxCell id="WXDrTUnuM0jgBfLStoZc-69" value="return&lt;br&gt;{tfa_type}" style="strokeWidth=2;html=1;shape=mxgraph.flowchart.terminator;whiteSpace=wrap;" parent="WIyWlLk6GJQsqaUBKTNV-1" vertex="1">
          <mxGeometry x="293.5" y="739" width="75" height="50" as="geometry" />
        </mxCell>
        <mxCell id="WXDrTUnuM0jgBfLStoZc-71" value="EM" style="text;html=1;align=center;verticalAlign=middle;resizable=0;points=[];autosize=1;strokeColor=none;fillColor=none;" parent="WIyWlLk6GJQsqaUBKTNV-1" vertex="1">
          <mxGeometry x="242" y="737" width="40" height="30" as="geometry" />
        </mxCell>
        <mxCell id="WXDrTUnuM0jgBfLStoZc-72" value="send email" style="strokeWidth=2;html=1;shape=mxgraph.flowchart.start_1;whiteSpace=wrap;" parent="WIyWlLk6GJQsqaUBKTNV-1" vertex="1">
          <mxGeometry x="680" y="580" width="80" height="50" as="geometry" />
        </mxCell>
        <mxCell id="WXDrTUnuM0jgBfLStoZc-85" value="" style="edgeStyle=orthogonalEdgeStyle;rounded=0;orthogonalLoop=1;jettySize=auto;html=1;shape=link;" parent="WIyWlLk6GJQsqaUBKTNV-1" source="WXDrTUnuM0jgBfLStoZc-77" target="WXDrTUnuM0jgBfLStoZc-84" edge="1">
          <mxGeometry relative="1" as="geometry" />
        </mxCell>
        <mxCell id="WXDrTUnuM0jgBfLStoZc-100" value="" style="edgeStyle=orthogonalEdgeStyle;rounded=0;orthogonalLoop=1;jettySize=auto;html=1;" parent="WIyWlLk6GJQsqaUBKTNV-1" source="WXDrTUnuM0jgBfLStoZc-77" target="WXDrTUnuM0jgBfLStoZc-91" edge="1">
          <mxGeometry relative="1" as="geometry" />
        </mxCell>
        <mxCell id="WXDrTUnuM0jgBfLStoZc-77" value="/2fa/validate/activate/" style="strokeWidth=2;html=1;shape=mxgraph.flowchart.start_1;whiteSpace=wrap;" parent="WIyWlLk6GJQsqaUBKTNV-1" vertex="1">
          <mxGeometry x="500" y="684" width="120" height="50" as="geometry" />
        </mxCell>
        <mxCell id="WXDrTUnuM0jgBfLStoZc-80" style="edgeStyle=orthogonalEdgeStyle;rounded=0;orthogonalLoop=1;jettySize=auto;html=1;entryX=1;entryY=0.5;entryDx=0;entryDy=0;entryPerimeter=0;dashed=1;" parent="WIyWlLk6GJQsqaUBKTNV-1" source="WXDrTUnuM0jgBfLStoZc-72" target="WXDrTUnuM0jgBfLStoZc-77" edge="1">
          <mxGeometry relative="1" as="geometry">
            <Array as="points">
              <mxPoint x="720" y="709" />
            </Array>
          </mxGeometry>
        </mxCell>
        <mxCell id="WXDrTUnuM0jgBfLStoZc-82" style="edgeStyle=orthogonalEdgeStyle;rounded=0;orthogonalLoop=1;jettySize=auto;html=1;entryX=0;entryY=0.5;entryDx=0;entryDy=0;entryPerimeter=0;dashed=1;" parent="WIyWlLk6GJQsqaUBKTNV-1" source="WXDrTUnuM0jgBfLStoZc-69" target="WXDrTUnuM0jgBfLStoZc-72" edge="1">
          <mxGeometry relative="1" as="geometry">
            <Array as="points">
              <mxPoint x="330" y="605" />
            </Array>
          </mxGeometry>
        </mxCell>
        <mxCell id="WXDrTUnuM0jgBfLStoZc-83" style="edgeStyle=orthogonalEdgeStyle;rounded=0;orthogonalLoop=1;jettySize=auto;html=1;entryX=0;entryY=0.5;entryDx=0;entryDy=0;entryPerimeter=0;dashed=1;" parent="WIyWlLk6GJQsqaUBKTNV-1" source="WXDrTUnuM0jgBfLStoZc-65" target="WXDrTUnuM0jgBfLStoZc-77" edge="1">
          <mxGeometry relative="1" as="geometry">
            <Array as="points">
              <mxPoint x="400" y="889" />
              <mxPoint x="400" y="709" />
            </Array>
          </mxGeometry>
        </mxCell>
        <mxCell id="WXDrTUnuM0jgBfLStoZc-84" value="POST" style="shape=partialRectangle;whiteSpace=wrap;html=1;top=0;bottom=0;fillColor=none;direction=south;" parent="WIyWlLk6GJQsqaUBKTNV-1" vertex="1">
          <mxGeometry x="543" y="631.62" width="34" height="24.75" as="geometry" />
        </mxCell>
        <mxCell id="WXDrTUnuM0jgBfLStoZc-86" value="POST" style="shape=partialRectangle;whiteSpace=wrap;html=1;top=0;bottom=0;fillColor=none;direction=south;" parent="WIyWlLk6GJQsqaUBKTNV-1" vertex="1">
          <mxGeometry x="551" y="132.25" width="34" height="24.75" as="geometry" />
        </mxCell>
        <mxCell id="WXDrTUnuM0jgBfLStoZc-89" value="" style="edgeStyle=orthogonalEdgeStyle;rounded=0;orthogonalLoop=1;jettySize=auto;html=1;" parent="WIyWlLk6GJQsqaUBKTNV-1" source="WXDrTUnuM0jgBfLStoZc-91" target="WXDrTUnuM0jgBfLStoZc-95" edge="1">
          <mxGeometry relative="1" as="geometry" />
        </mxCell>
        <mxCell id="WXDrTUnuM0jgBfLStoZc-90" value="" style="edgeStyle=orthogonalEdgeStyle;rounded=0;orthogonalLoop=1;jettySize=auto;html=1;" parent="WIyWlLk6GJQsqaUBKTNV-1" source="WXDrTUnuM0jgBfLStoZc-91" target="WXDrTUnuM0jgBfLStoZc-92" edge="1">
          <mxGeometry relative="1" as="geometry" />
        </mxCell>
        <mxCell id="WXDrTUnuM0jgBfLStoZc-91" value="is&lt;br&gt;url_token&lt;br&gt;valid?" style="rhombus;whiteSpace=wrap;html=1;" parent="WIyWlLk6GJQsqaUBKTNV-1" vertex="1">
          <mxGeometry x="520" y="767" width="80" height="80" as="geometry" />
        </mxCell>
        <mxCell id="WXDrTUnuM0jgBfLStoZc-92" value="return 400" style="strokeWidth=2;html=1;shape=mxgraph.flowchart.terminator;whiteSpace=wrap;" parent="WIyWlLk6GJQsqaUBKTNV-1" vertex="1">
          <mxGeometry x="660" y="787" width="70" height="40" as="geometry" />
        </mxCell>
        <mxCell id="WXDrTUnuM0jgBfLStoZc-93" value="no" style="text;html=1;align=center;verticalAlign=middle;resizable=0;points=[];autosize=1;strokeColor=none;fillColor=none;" parent="WIyWlLk6GJQsqaUBKTNV-1" vertex="1">
          <mxGeometry x="600" y="783" width="40" height="30" as="geometry" />
        </mxCell>
        <mxCell id="WXDrTUnuM0jgBfLStoZc-94" value="" style="edgeStyle=orthogonalEdgeStyle;rounded=0;orthogonalLoop=1;jettySize=auto;html=1;" parent="WIyWlLk6GJQsqaUBKTNV-1" source="WXDrTUnuM0jgBfLStoZc-95" target="WXDrTUnuM0jgBfLStoZc-96" edge="1">
          <mxGeometry relative="1" as="geometry" />
        </mxCell>
        <mxCell id="WXDrTUnuM0jgBfLStoZc-102" value="" style="edgeStyle=orthogonalEdgeStyle;rounded=0;orthogonalLoop=1;jettySize=auto;html=1;" parent="WIyWlLk6GJQsqaUBKTNV-1" source="WXDrTUnuM0jgBfLStoZc-95" target="WXDrTUnuM0jgBfLStoZc-101" edge="1">
          <mxGeometry relative="1" as="geometry" />
        </mxCell>
        <mxCell id="WXDrTUnuM0jgBfLStoZc-95" value="is code&lt;br&gt;valid?" style="rhombus;whiteSpace=wrap;html=1;" parent="WIyWlLk6GJQsqaUBKTNV-1" vertex="1">
          <mxGeometry x="520" y="887" width="80" height="80" as="geometry" />
        </mxCell>
        <mxCell id="WXDrTUnuM0jgBfLStoZc-96" value="return 400&lt;br&gt;{url_token}" style="strokeWidth=2;html=1;shape=mxgraph.flowchart.terminator;whiteSpace=wrap;" parent="WIyWlLk6GJQsqaUBKTNV-1" vertex="1">
          <mxGeometry x="660" y="907" width="70" height="40" as="geometry" />
        </mxCell>
        <mxCell id="WXDrTUnuM0jgBfLStoZc-98" value="no" style="text;html=1;align=center;verticalAlign=middle;resizable=0;points=[];autosize=1;strokeColor=none;fillColor=none;" parent="WIyWlLk6GJQsqaUBKTNV-1" vertex="1">
          <mxGeometry x="600" y="902" width="40" height="30" as="geometry" />
        </mxCell>
        <mxCell id="WXDrTUnuM0jgBfLStoZc-101" value="return 200" style="strokeWidth=2;html=1;shape=mxgraph.flowchart.terminator;whiteSpace=wrap;" parent="WIyWlLk6GJQsqaUBKTNV-1" vertex="1">
          <mxGeometry x="525" y="1024" width="70" height="40" as="geometry" />
        </mxCell>
        <mxCell id="WXDrTUnuM0jgBfLStoZc-105" style="edgeStyle=orthogonalEdgeStyle;rounded=0;orthogonalLoop=1;jettySize=auto;html=1;entryX=0.962;entryY=0.295;entryDx=0;entryDy=0;entryPerimeter=0;exitX=0.136;exitY=0.858;exitDx=0;exitDy=0;exitPerimeter=0;dashed=1;" parent="WIyWlLk6GJQsqaUBKTNV-1" source="WXDrTUnuM0jgBfLStoZc-20" target="WXDrTUnuM0jgBfLStoZc-19" edge="1">
          <mxGeometry relative="1" as="geometry">
            <Array as="points">
              <mxPoint x="596" y="85" />
              <mxPoint x="596" y="107" />
            </Array>
          </mxGeometry>
        </mxCell>
        <mxCell id="WXDrTUnuM0jgBfLStoZc-108" value="TODO" style="text;html=1;align=center;verticalAlign=middle;resizable=0;points=[];autosize=1;strokeColor=none;fillColor=none;" parent="WIyWlLk6GJQsqaUBKTNV-1" vertex="1">
          <mxGeometry x="650" y="127" width="60" height="30" as="geometry" />
        </mxCell>
      </root>
    </mxGraphModel>
  </diagram>
</mxfile>
